<svg width="625" height="71" viewBox="0 0 625 71" fill="none" xmlns="http://www.w3.org/2000/svg">
<path d="M20.0001 3.20756L4.74937 12.5555V37.108H14.4121V23.8632H25.6724V37.108H35.2507V12.488L20.0001 3.20756ZM20.0001 1L37.0449 11.0396V39H23.8783V25.7552H16.2063V39H2.9552V11.1297L20.0001 1Z" fill="#FAFAFA"/>
<path d="M82.0797 39H68.7955V25.5H61.2045V39H47.9203V10.9406L65 1L82.0797 10.8728V39Z" fill="#FAFAFA"/>
<path fill-rule="evenodd" clip-rule="evenodd" d="M119.301 28.1934L127.472 37.782L126.055 39L117.861 29.4114C115.042 31.552 111.867 32.6223 108.339 32.6223C106.198 32.6223 104.15 32.2052 102.194 31.3711C100.238 30.537 98.555 29.4151 97.145 28.0052C95.7351 26.5953 94.6131 24.9123 93.7791 22.9562C92.9451 21.0001 92.528 18.9518 92.528 16.8111C92.5279 14.6705 92.9449 12.6222 93.7791 10.6661C94.6133 8.70995 95.7352 7.02696 97.145 5.61709C98.5549 4.20723 100.238 3.08524 102.194 2.25115C104.15 1.41705 106.199 1 108.339 1C110.48 1 112.528 1.41705 114.484 2.25115C116.44 3.08524 118.123 4.20723 119.533 5.61709C120.943 7.02696 122.065 8.70995 122.899 10.6661C123.733 12.6222 124.15 14.6705 124.15 16.8111C124.15 19.0108 123.722 21.0924 122.866 23.0559C122.01 25.0194 120.821 26.7319 119.301 28.1934L119.301 28.1934ZM108.339 30.7621C110.864 30.7621 113.196 30.1383 115.337 28.8908C117.478 27.6433 119.172 25.9492 120.419 23.8086C121.667 21.668 122.29 19.3355 122.29 16.811C122.29 14.2865 121.667 11.9539 120.419 9.8133C119.172 7.67269 117.477 5.97866 115.337 4.7312C113.196 3.48375 110.864 2.86002 108.339 2.86002C105.815 2.86002 103.482 3.48375 101.342 4.7312C99.2011 5.97866 97.507 7.67269 96.2595 9.8133C95.012 11.9539 94.3883 14.2865 94.3883 16.811C94.3884 19.3355 95.0121 21.668 96.2595 23.8086C97.5069 25.9492 99.2009 27.6433 101.342 28.8908C103.482 30.1383 105.815 30.7621 108.339 30.7621Z" fill="#FAFAFA"/>
<path d="M164.44 27.1181L172.55 36.6236L169.76 39L161.671 29.5164C159.055 31.2605 156.17 32.1325 153.016 32.1325C150.908 32.1325 148.892 31.7219 146.966 30.9008C145.04 30.0796 143.383 28.975 141.995 27.5869C140.607 26.1989 139.503 24.542 138.681 22.6162C137.86 20.6904 137.45 18.6737 137.45 16.5663C137.45 14.4588 137.86 12.4422 138.681 10.5164C139.503 8.59054 140.607 6.93362 141.995 5.54558C143.383 4.15755 145.04 3.05295 146.966 2.23177C148.892 1.41059 150.909 1 153.016 1C155.123 1 157.14 1.41059 159.066 2.23177C160.992 3.05295 162.649 4.15755 164.037 5.54558C165.425 6.93362 166.529 8.59054 167.35 10.5164C168.172 12.4422 168.582 14.4588 168.582 16.5663C168.582 17.9034 168.415 19.2115 168.081 20.4905C167.747 21.7695 167.271 22.9613 166.653 24.066C166.035 25.1706 165.297 26.188 164.44 27.1181H164.44ZM153.016 28.4697C154.629 28.4697 156.17 28.1536 157.638 27.5213C159.106 26.8891 160.37 26.0425 161.431 24.9815C162.492 23.9205 163.339 22.6561 163.971 21.1881C164.603 19.7201 164.92 18.1795 164.92 16.5662C164.92 14.9529 164.603 13.4123 163.971 11.9443C163.339 10.4763 162.492 9.21179 161.431 8.15076C160.37 7.08974 159.106 6.24312 157.638 5.61091C156.17 4.9787 154.629 4.6626 153.016 4.6626C151.403 4.6626 149.862 4.9787 148.394 5.61091C146.926 6.24312 145.662 7.08977 144.601 8.15085C143.54 9.21193 142.693 10.4764 142.061 11.9443C141.429 13.4121 141.112 14.9528 141.112 16.5662C141.112 18.1796 141.429 19.7202 142.061 21.1881C142.693 22.6559 143.54 23.9204 144.601 24.9815C145.662 26.0426 146.926 26.8892 148.394 27.5213C149.862 28.1535 151.403 28.4696 153.016 28.4697Z" fill="#FAFAFA"/>
<path d="M202.942 1.64966L219 37.7129L217.137 38.5465L201.079 2.48322L202.942 1.64966ZM181 38.522V1.45351H183.059V38.522H181ZM193.356 38.522V1.45351H195.416V38.522H193.356Z" fill="#FAFAFA"/>
<path d="M248.739 2.07173L264 36.344L260.412 37.9283L245.151 3.65605L248.739 2.07173ZM226 37.5089V2.28145H229.914V37.5089H226ZM235.785 37.5089V2.28145H239.7V37.5089H235.786H235.785Z" fill="#FAFAFA"/>
<path d="M309 23.8H293.8V39H286.2V23.8H271V16.2H286.2V1H293.8V16.2H309V23.8Z" fill="#FAFAFA"/>
<path d="M335 1C331.242 1 327.569 2.11433 324.444 4.20208C321.32 6.28982 318.884 9.25722 317.446 12.729C316.008 16.2008 315.632 20.0211 316.365 23.7067C317.098 27.3923 318.908 30.7778 321.565 33.435C324.222 36.0922 327.608 37.9018 331.293 38.6349C334.979 39.368 338.799 38.9918 342.271 37.5537C345.743 36.1156 348.71 33.6804 350.798 30.5558C352.886 27.4313 354 23.7578 354 20C354 14.9609 351.998 10.1282 348.435 6.56497C344.872 3.00178 340.039 1 335 1V1ZM335 29.5C333.121 29.5 331.284 28.9428 329.722 27.899C328.16 26.8551 326.942 25.3714 326.223 23.6355C325.504 21.8996 325.316 19.9895 325.683 18.1466C326.049 16.3038 326.954 14.6111 328.282 13.2825C329.611 11.9539 331.304 11.0491 333.147 10.6825C334.989 10.316 336.9 10.5041 338.635 11.2231C340.371 11.9422 341.855 13.1598 342.899 14.7221C343.943 16.2843 344.5 18.1211 344.5 20C344.5 22.5196 343.499 24.9359 341.718 26.7175C339.936 28.4991 337.52 29.5 335 29.5Z" fill="#FAFAFA"/>
<path fill-rule="evenodd" clip-rule="evenodd" d="M381.267 25.4644V11.1333H378.733V25.4467L373.859 19.7821L371.939 21.4288L380.003 30.8072L388.097 21.4339L386.176 19.7796L381.267 25.4644ZM380 1C369.507 1 361 9.50693 361 20C361 30.4931 369.507 39 380 39C390.493 39 399 30.4931 399 20C399 9.50693 390.493 1 380 1ZM380 36.4667C370.921 36.4667 363.533 29.0795 363.533 20C363.533 10.9205 370.921 3.53333 380 3.53333C389.079 3.53333 396.467 10.9205 396.467 20C396.467 29.0795 389.079 36.4667 380 36.4667Z" fill="#FAFAFA"/>
<path fill-rule="evenodd" clip-rule="evenodd" d="M418.192 6.46774V27.9227C416.942 26.3767 415.034 25.3838 412.897 25.3838C409.143 25.3838 406.089 28.438 406.089 32.1919C406.089 35.9458 409.143 39 412.897 39C416.651 39 419.705 35.9458 419.705 32.1919V7.69226L442.398 2.8675V23.3154C441.149 21.7694 439.241 20.7765 437.103 20.7765C433.349 20.7765 430.295 23.8307 430.295 27.5846C430.295 31.3385 433.349 34.3927 437.103 34.3927C440.857 34.3927 443.911 31.3385 443.911 27.5846V1L418.192 6.46774ZM412.897 37.4871C409.977 37.4871 407.602 35.1114 407.602 32.1919C407.602 29.2715 409.977 26.8967 412.897 26.8967C415.817 26.8967 418.192 29.2715 418.192 32.1919C418.192 35.1109 415.816 37.4871 412.897 37.4871ZM437.103 32.8798C434.183 32.8798 431.808 30.5045 431.808 27.5846C431.808 24.6657 434.183 22.2895 437.103 22.2895C440.023 22.2895 442.398 24.6657 442.398 27.5846C442.398 30.5055 440.022 32.8798 437.103 32.8798Z" fill="#FAFAFA"/>
<path d="M453.375 8.125V29.5H486.625V8.125H453.375ZM453.375 5.75H486.625C487.255 5.75 487.859 6.00022 488.304 6.44562C488.75 6.89102 489 7.49511 489 8.125V31.875C489 32.5049 488.75 33.109 488.304 33.5544C487.859 33.9998 487.255 34.25 486.625 34.25H453.375C452.745 34.25 452.141 33.9998 451.696 33.5544C451.25 33.109 451 32.5049 451 31.875V8.125C451 7.49511 451.25 6.89102 451.696 6.44562C452.141 6.00022 452.745 5.75 453.375 5.75Z" fill="#FAFAFA"/>
<path fill-rule="evenodd" clip-rule="evenodd" d="M474.75 20H484.25V27.125H474.75V20Z" fill="#FAFAFA"/>
<path d="M525.432 39L503.184 20L525.432 1L526.816 2.61883L506.464 20L526.816 37.3812" fill="#FAFAFA"/>
<path d="M549.568 39L548.184 37.3812L568.536 20L548.184 2.61883L549.568 1L571.816 20" fill="#FAFAFA"/>
<path d="M621.456 20L588.544 1V39L621.456 20Z" fill="#FAFAFA"/>
<path d="M8.5 68.6118C9.1441 68.6118 9.76181 68.3616 10.2173 67.9163C10.6727 67.4709 10.9286 66.8668 10.9286 66.237H6.07143C6.07143 66.8668 6.3273 67.4709 6.78274 67.9163C7.23819 68.3616 7.8559 68.6118 8.5 68.6118ZM8.5 51.8904L7.53221 52.0816C6.43445 52.3003 5.44769 52.8832 4.73893 53.7316C4.03018 54.5801 3.64298 55.642 3.64286 56.7375C3.64286 57.4832 3.48014 59.3463 3.0855 61.1809C2.89121 62.0916 2.62893 63.0404 2.28043 63.8621H14.7196C14.3711 63.0404 14.11 62.0928 13.9145 61.1809C13.5199 59.3463 13.3571 57.4832 13.3571 56.7375C13.3567 55.6422 12.9694 54.5806 12.2607 53.7324C11.552 52.8842 10.5653 52.3014 9.46779 52.0828L8.5 51.8892V51.8904ZM16.0529 63.8621C16.3236 64.3929 16.6369 64.8132 17 65.0495H0C0.363071 64.8132 0.676357 64.3929 0.947143 63.8621C2.04 61.7247 2.42857 57.7824 2.42857 56.7375C2.42857 53.8639 4.51714 51.4653 7.29179 50.9179C7.27484 50.7528 7.29347 50.586 7.34647 50.4284C7.39947 50.2707 7.48567 50.1257 7.59951 50.0027C7.71335 49.8796 7.8523 49.7813 8.0074 49.7139C8.1625 49.6466 8.33031 49.6118 8.5 49.6118C8.66969 49.6118 8.8375 49.6466 8.9926 49.7139C9.1477 49.7813 9.28665 49.8796 9.40049 50.0027C9.51433 50.1257 9.60053 50.2707 9.65353 50.4284C9.70653 50.586 9.72516 50.7528 9.70821 50.9179C11.0807 51.1909 12.3145 51.9193 13.2008 52.9799C14.087 54.0404 14.5713 55.3679 14.5714 56.7375C14.5714 57.7824 14.96 61.7247 16.0529 63.8621Z" fill="white"/>
<path d="M27.3897 56.1931C28.9131 52.7194 32.6931 50.7618 36.3613 51.7406C40.4248 52.8247 42.8123 57.1017 41.6939 61.2933C40.5755 65.485 36.3748 68.004 32.3113 66.9199C30.3332 66.3921 28.6961 65.0895 27.7018 63.3088C27.5557 63.047 27.2288 62.9598 26.9716 63.114C26.7145 63.2682 26.6245 63.6054 26.7711 63.868C27.9039 65.8969 29.7723 67.3835 32.0271 67.9851C36.6609 69.2214 41.4512 66.3488 42.7265 61.5688C44.0019 56.7889 41.2793 51.9117 36.6455 50.6753C32.4059 49.5442 28.0353 51.8526 26.3456 55.9145L24.629 55.4565L25.8028 59.7633L28.9661 56.6137L27.3897 56.1931Z" fill="white"/>
<rect x="33.4065" y="53.5426" width="0.887527" height="5.76893" rx="0.443764" fill="white"/>
<rect x="33.4065" y="59.0302" width="0.887528" height="5.54705" rx="0.443764" transform="rotate(-43.0915 33.4065 59.0302)" fill="white"/>
<path d="M57.3608 51.4288C57.7868 49.6728 60.2848 49.6728 60.7108 51.4288C60.7747 51.6926 60.9 51.9376 61.0765 52.1438C61.253 52.3501 61.4757 52.5117 61.7264 52.6156C61.9772 52.7195 62.2489 52.7627 62.5196 52.7417C62.7902 52.7207 63.052 52.6361 63.2838 52.4948C64.8268 51.5548 66.5938 53.3208 65.6538 54.8648C65.5127 55.0965 65.4282 55.3582 65.4073 55.6286C65.3863 55.8991 65.4295 56.1706 65.5333 56.4212C65.6371 56.6718 65.7985 56.8944 66.0045 57.0709C66.2105 57.2474 66.4552 57.3728 66.7188 57.4368C68.4748 57.8628 68.4748 60.3608 66.7188 60.7868C66.455 60.8508 66.21 60.9761 66.0038 61.1526C65.7975 61.329 65.6359 61.5517 65.532 61.8025C65.4281 62.0533 65.3849 62.325 65.4059 62.5956C65.4269 62.8663 65.5115 63.1281 65.6528 63.3598C66.5928 64.9028 64.8268 66.6698 63.2828 65.7298C63.0511 65.5887 62.7894 65.5043 62.519 65.4834C62.2486 65.4624 61.977 65.5056 61.7264 65.6094C61.4758 65.7131 61.2532 65.8746 61.0767 66.0806C60.9002 66.2866 60.7749 66.5313 60.7108 66.7948C60.2848 68.5508 57.7868 68.5508 57.3608 66.7948C57.2968 66.531 57.1715 66.2861 56.9951 66.0798C56.8186 65.8736 56.5959 65.712 56.3451 65.6081C56.0944 65.5042 55.8226 65.461 55.552 65.482C55.2814 65.503 55.0195 65.5875 54.7878 65.7288C53.2448 66.6688 51.4778 64.9028 52.4178 63.3588C52.5589 63.1272 52.6433 62.8655 52.6643 62.5951C52.6852 62.3246 52.642 62.0531 52.5382 61.8025C52.4345 61.5519 52.273 61.3293 52.067 61.1528C51.8611 60.9763 51.6163 60.8509 51.3528 60.7868C49.5968 60.3608 49.5968 57.8628 51.3528 57.4368C51.6166 57.3729 51.8615 57.2476 52.0678 57.0711C52.274 56.8946 52.4356 56.672 52.5395 56.4212C52.6434 56.1704 52.6866 55.8987 52.6656 55.6281C52.6447 55.3574 52.5601 55.0956 52.4188 54.8638C51.4788 53.3208 53.2448 51.5538 54.7888 52.4938C55.7888 53.1018 57.0848 52.5638 57.3608 51.4288Z" stroke="white" stroke-linecap="round" stroke-linejoin="round"/>
<path d="M59.0358 62.1118C60.6926 62.1118 62.0358 60.7687 62.0358 59.1118C62.0358 57.455 60.6926 56.1118 59.0358 56.1118C57.3789 56.1118 56.0358 57.455 56.0358 59.1118C56.0358 60.7687 57.3789 62.1118 59.0358 62.1118Z" stroke="white" stroke-linecap="round" stroke-linejoin="round"/>
<path d="M93.7165 67.7395L88.5396 62.5413C89.8707 61.0137 90.6 59.0916 90.6 57.0906C90.6 52.4155 86.6602 48.6118 81.8179 48.6118C76.9755 48.6118 73.0358 52.4155 73.0358 57.0906C73.0358 61.7657 76.9755 65.5693 81.8179 65.5693C83.6358 65.5693 85.3681 65.04 86.8493 64.035L92.0654 69.2727C92.2835 69.4913 92.5767 69.6118 92.891 69.6118C93.1884 69.6118 93.4706 69.5024 93.6848 69.3033C94.1399 68.8805 94.1544 68.1793 93.7165 67.7395ZM81.8179 50.8237C85.3972 50.8237 88.309 53.6349 88.309 57.0906C88.309 60.5462 85.3972 63.3575 81.8179 63.3575C78.2386 63.3575 75.3268 60.5462 75.3268 57.0906C75.3268 53.6349 78.2386 50.8237 81.8179 50.8237Z" fill="black"/>
</svg>
