<svg width="600" height="40" viewBox="0 0 600 40" fill="none" xmlns="http://www.w3.org/2000/svg">
<path d="M20 1C9.51254 1 1 9.51254 1 20C1 30.5102 9.51254 39 20 39C30.5102 39 39 30.4875 39 20C39 9.51254 30.5102 1 20 1ZM28.6941 28.4217C28.3763 28.9892 27.6499 29.1481 27.1051 28.8076C22.6105 26.0836 17.0036 25.4707 10.3751 26.9916C9.73955 27.1051 9.10394 26.7192 8.96774 26.0836C8.92234 25.448 9.30824 24.8124 9.87575 24.6762C17.1398 23.0191 23.405 23.7228 28.399 26.7873C28.9892 27.1278 29.1708 27.8542 28.8076 28.4217H28.6941ZM31.0777 23.2461C30.6237 23.9271 29.7157 24.1541 29.0346 23.7455C23.9271 20.5675 16.141 19.6595 10.1027 21.5209C9.37634 21.7479 8.51374 21.2939 8.28674 20.5448C8.05974 19.7957 8.51374 18.9558 9.33094 18.7288C16.2318 16.6858 24.8124 17.7073 30.6691 21.2258C31.3501 21.6798 31.5771 22.5878 31.1231 23.2688L31.0777 23.2461ZM31.3047 17.8435C25.1756 14.2115 15.0514 13.871 9.19474 15.6416C8.28674 15.9367 7.33333 15.4146 7.03823 14.4612C6.74313 13.5532 7.26523 12.5317 8.21864 12.2366C14.9379 10.1935 26.1063 10.6022 33.1434 14.779C33.9833 15.2784 34.2784 16.368 33.7563 17.2079C33.3023 18.0705 32.1673 18.3429 31.3501 17.8435H31.3047Z" fill="#FAFAFA"/>
<path d="M60.0001 3.20756L44.7494 12.5555V37.108H54.4121V23.8632H65.6724V37.108H75.2507V12.488L60.0001 3.20756ZM60.0001 1L77.0449 11.0396V39H63.8783V25.7552H56.2063V39H42.9552V11.1297L60.0001 1Z" fill="#FAFAFA"/>
<path d="M117.08 39H103.795V25.5H96.2045V39H82.9203V10.9406L100 1L117.08 10.8728V39Z" fill="#FAFAFA"/>
<path fill-rule="evenodd" clip-rule="evenodd" d="M149.301 28.1934L157.472 37.782L156.055 39L147.861 29.4114C145.042 31.552 141.867 32.6223 138.339 32.6223C136.198 32.6223 134.15 32.2052 132.194 31.3711C130.238 30.537 128.555 29.4151 127.145 28.0052C125.735 26.5953 124.613 24.9123 123.779 22.9562C122.945 21.0001 122.528 18.9518 122.528 16.8111C122.528 14.6705 122.945 12.6222 123.779 10.6661C124.613 8.70995 125.735 7.02696 127.145 5.61709C128.555 4.20723 130.238 3.08524 132.194 2.25115C134.15 1.41705 136.199 1 138.339 1C140.48 1 142.528 1.41705 144.484 2.25115C146.44 3.08524 148.123 4.20723 149.533 5.61709C150.943 7.02696 152.065 8.70995 152.899 10.6661C153.733 12.6222 154.15 14.6705 154.15 16.8111C154.15 19.0108 153.722 21.0924 152.866 23.0559C152.01 25.0194 150.821 26.7319 149.301 28.1934L149.301 28.1934ZM138.339 30.7621C140.864 30.7621 143.196 30.1383 145.337 28.8908C147.478 27.6433 149.172 25.9492 150.419 23.8086C151.667 21.668 152.29 19.3355 152.29 16.811C152.29 14.2865 151.667 11.9539 150.419 9.8133C149.172 7.67269 147.477 5.97866 145.337 4.7312C143.196 3.48375 140.864 2.86002 138.339 2.86002C135.815 2.86002 133.482 3.48375 131.342 4.7312C129.201 5.97866 127.507 7.67269 126.26 9.8133C125.012 11.9539 124.388 14.2865 124.388 16.811C124.388 19.3355 125.012 21.668 126.26 23.8086C127.507 25.9492 129.201 27.6433 131.342 28.8908C133.482 30.1383 135.815 30.7621 138.339 30.7621Z" fill="#FAFAFA"/>
<path d="M189.44 27.1181L197.55 36.6236L194.76 39L186.671 29.5164C184.055 31.2605 181.17 32.1325 178.016 32.1325C175.908 32.1325 173.892 31.7219 171.966 30.9008C170.04 30.0796 168.383 28.975 166.995 27.5869C165.607 26.1989 164.503 24.542 163.681 22.6162C162.86 20.6904 162.45 18.6737 162.45 16.5663C162.45 14.4588 162.86 12.4422 163.681 10.5164C164.503 8.59054 165.607 6.93362 166.995 5.54558C168.383 4.15755 170.04 3.05295 171.966 2.23177C173.892 1.41059 175.909 1 178.016 1C180.123 1 182.14 1.41059 184.066 2.23177C185.992 3.05295 187.649 4.15755 189.037 5.54558C190.425 6.93362 191.529 8.59054 192.35 10.5164C193.172 12.4422 193.582 14.4588 193.582 16.5663C193.582 17.9034 193.415 19.2115 193.081 20.4905C192.747 21.7695 192.271 22.9613 191.653 24.066C191.035 25.1706 190.297 26.188 189.44 27.1181H189.44ZM178.016 28.4697C179.629 28.4697 181.17 28.1536 182.638 27.5213C184.106 26.8891 185.37 26.0425 186.431 24.9815C187.492 23.9205 188.339 22.6561 188.971 21.1881C189.603 19.7201 189.92 18.1795 189.92 16.5662C189.92 14.9529 189.603 13.4123 188.971 11.9443C188.339 10.4763 187.492 9.21179 186.431 8.15076C185.37 7.08974 184.106 6.24312 182.638 5.61091C181.17 4.9787 179.629 4.6626 178.016 4.6626C176.403 4.6626 174.862 4.9787 173.394 5.61091C171.926 6.24312 170.662 7.08977 169.601 8.15085C168.54 9.21193 167.693 10.4764 167.061 11.9443C166.429 13.4121 166.112 14.9528 166.112 16.5662C166.112 18.1796 166.429 19.7202 167.061 21.1881C167.693 22.6559 168.54 23.9204 169.601 24.9815C170.662 26.0426 171.926 26.8892 173.394 27.5213C174.862 28.1535 176.403 28.4696 178.016 28.4697Z" fill="#FAFAFA"/>
<path d="M222.942 1.64966L239 37.7129L237.137 38.5465L221.079 2.48322L222.942 1.64966ZM201 38.522V1.45351H203.059V38.522H201ZM213.356 38.522V1.45351H215.416V38.522H213.356Z" fill="#FAFAFA"/>
<path d="M263.739 2.07173L279 36.344L275.412 37.9283L260.151 3.65605L263.739 2.07173ZM241 37.5089V2.28145H244.914V37.5089H241ZM250.785 37.5089V2.28145H254.7V37.5089H250.786H250.785Z" fill="#FAFAFA"/>
<path d="M319 23.8H303.8V39H296.2V23.8H281V16.2H296.2V1H303.8V16.2H319V23.8Z" fill="#FAFAFA"/>
<path d="M340 1C336.242 1 332.569 2.11433 329.444 4.20208C326.32 6.28982 323.884 9.25722 322.446 12.729C321.008 16.2008 320.632 20.0211 321.365 23.7067C322.098 27.3923 323.908 30.7778 326.565 33.435C329.222 36.0922 332.608 37.9018 336.293 38.6349C339.979 39.368 343.799 38.9918 347.271 37.5537C350.743 36.1156 353.71 33.6804 355.798 30.5558C357.886 27.4313 359 23.7578 359 20C359 14.9609 356.998 10.1282 353.435 6.56497C349.872 3.00178 345.039 1 340 1V1ZM340 29.5C338.121 29.5 336.284 28.9428 334.722 27.899C333.16 26.8551 331.942 25.3714 331.223 23.6355C330.504 21.8996 330.316 19.9895 330.683 18.1466C331.049 16.3038 331.954 14.6111 333.282 13.2825C334.611 11.9539 336.304 11.0491 338.147 10.6825C339.989 10.316 341.9 10.5041 343.635 11.2231C345.371 11.9422 346.855 13.1598 347.899 14.7221C348.943 16.2843 349.5 18.1211 349.5 20C349.5 22.5196 348.499 24.9359 346.718 26.7175C344.936 28.4991 342.52 29.5 340 29.5Z" fill="#FAFAFA"/>
<path fill-rule="evenodd" clip-rule="evenodd" d="M381.267 25.4644V11.1333H378.733V25.4467L373.859 19.7821L371.939 21.4288L380.003 30.8072L388.097 21.4339L386.176 19.7796L381.267 25.4644ZM380 1C369.507 1 361 9.50693 361 20C361 30.4931 369.507 39 380 39C390.493 39 399 30.4931 399 20C399 9.50693 390.493 1 380 1ZM380 36.4667C370.921 36.4667 363.533 29.0795 363.533 20C363.533 10.9205 370.921 3.53333 380 3.53333C389.079 3.53333 396.467 10.9205 396.467 20C396.467 29.0795 389.079 36.4667 380 36.4667Z" fill="#FAFAFA"/>
<path fill-rule="evenodd" clip-rule="evenodd" d="M413.192 6.46774V27.9227C411.942 26.3767 410.034 25.3838 407.897 25.3838C404.143 25.3838 401.089 28.438 401.089 32.1919C401.089 35.9458 404.143 39 407.897 39C411.651 39 414.705 35.9458 414.705 32.1919V7.69226L437.398 2.8675V23.3154C436.149 21.7694 434.241 20.7765 432.103 20.7765C428.349 20.7765 425.295 23.8307 425.295 27.5846C425.295 31.3385 428.349 34.3927 432.103 34.3927C435.857 34.3927 438.911 31.3385 438.911 27.5846V1L413.192 6.46774ZM407.897 37.4871C404.977 37.4871 402.602 35.1114 402.602 32.1919C402.602 29.2715 404.977 26.8967 407.897 26.8967C410.817 26.8967 413.192 29.2715 413.192 32.1919C413.192 35.1109 410.816 37.4871 407.897 37.4871ZM432.103 32.8798C429.183 32.8798 426.808 30.5045 426.808 27.5846C426.808 24.6657 429.183 22.2895 432.103 22.2895C435.023 22.2895 437.398 24.6657 437.398 27.5846C437.398 30.5055 435.022 32.8798 432.103 32.8798Z" fill="#FAFAFA"/>
<path d="M443.375 8.125V29.5H476.625V8.125H443.375ZM443.375 5.75H476.625C477.255 5.75 477.859 6.00022 478.304 6.44562C478.75 6.89102 479 7.49511 479 8.125V31.875C479 32.5049 478.75 33.109 478.304 33.5544C477.859 33.9998 477.255 34.25 476.625 34.25H443.375C442.745 34.25 442.141 33.9998 441.696 33.5544C441.25 33.109 441 32.5049 441 31.875V8.125C441 7.49511 441.25 6.89102 441.696 6.44562C442.141 6.00022 442.745 5.75 443.375 5.75V5.75Z" fill="#FAFAFA"/>
<path fill-rule="evenodd" clip-rule="evenodd" d="M464.75 20H474.25V27.125H464.75V20Z" fill="#FAFAFA"/>
<path d="M510.432 39L488.184 20L510.432 1L511.816 2.61883L491.464 20L511.816 37.3812" fill="#FAFAFA"/>
<path d="M529.568 39L528.184 37.3812L548.536 20L528.184 2.61883L529.568 1L551.816 20" fill="#FAFAFA"/>
<path d="M596.456 20L563.544 1V39L596.456 20Z" fill="#FAFAFA"/>
</svg>
